<mxfile host="app.diagrams.net" modified="2022-03-02T05:38:54.280Z" agent="5.0 (Windows NT 10.0; Win64; x64) AppleWebKit/537.36 (KHTML, like Gecko) Chrome/98.0.4758.102 Safari/537.36" etag="EdpZvpU7O2_z8j3JpSDO" version="15.5.8" type="github">
  <diagram id="bxp7SSMyuvDO-t-E0BtJ" name="第 1 页">
    <mxGraphModel dx="2719" dy="835" grid="1" gridSize="10" guides="1" tooltips="1" connect="1" arrows="1" fold="1" page="1" pageScale="1" pageWidth="1169" pageHeight="827" math="0" shadow="0">
      <root>
        <mxCell id="0" />
        <mxCell id="1" parent="0" />
        <mxCell id="NEyhYiZGuC3c6bcl8kjB-28" style="edgeStyle=orthogonalEdgeStyle;rounded=0;orthogonalLoop=1;jettySize=auto;html=1;exitX=0.5;exitY=1;exitDx=0;exitDy=0;" edge="1" parent="1" source="NEyhYiZGuC3c6bcl8kjB-22" target="NEyhYiZGuC3c6bcl8kjB-25">
          <mxGeometry relative="1" as="geometry" />
        </mxCell>
        <mxCell id="NEyhYiZGuC3c6bcl8kjB-22" value="get users voice call summary:&lt;br&gt;/activity/users/voice-call?users=yy95,hh96&amp;amp;fromDate=2022-02-10&amp;amp;endDate=2022-02-15" style="text;html=1;strokeColor=default;fillColor=none;align=left;verticalAlign=top;whiteSpace=wrap;rounded=0;" vertex="1" parent="1">
          <mxGeometry x="40" y="140" width="630" height="40" as="geometry" />
        </mxCell>
        <mxCell id="NEyhYiZGuC3c6bcl8kjB-27" style="edgeStyle=orthogonalEdgeStyle;rounded=0;orthogonalLoop=1;jettySize=auto;html=1;exitX=0.5;exitY=1;exitDx=0;exitDy=0;entryX=0.5;entryY=0;entryDx=0;entryDy=0;" edge="1" parent="1" source="NEyhYiZGuC3c6bcl8kjB-23" target="NEyhYiZGuC3c6bcl8kjB-26">
          <mxGeometry relative="1" as="geometry" />
        </mxCell>
        <mxCell id="NEyhYiZGuC3c6bcl8kjB-23" value="get user‘s’ voice call detail:&lt;br&gt;/activity/user/voice-call?user=yy95&amp;amp;fromDate=2022-02-10&amp;amp;endDate=2022-02-15" style="text;html=1;align=left;verticalAlign=top;whiteSpace=wrap;rounded=0;strokeColor=default;" vertex="1" parent="1">
          <mxGeometry x="-700" y="140" width="630" height="40" as="geometry" />
        </mxCell>
        <mxCell id="NEyhYiZGuC3c6bcl8kjB-25" value="&lt;div&gt;{&lt;/div&gt;&lt;div&gt;&lt;span&gt;	&lt;/span&gt;&quot;code&quot;: 200,&lt;/div&gt;&lt;div&gt;&lt;span&gt;	&lt;/span&gt;&quot;message&quot;: &quot;success&quot;,&lt;/div&gt;&lt;div&gt;&lt;span&gt;	&lt;/span&gt;&quot;data&quot;: [&lt;span&gt;{&lt;/span&gt;&lt;/div&gt;&lt;blockquote style=&quot;margin: 0 0 0 40px ; border: none ; padding: 0px&quot;&gt;&lt;span&gt;&quot;&lt;/span&gt;&lt;span&gt;user&quot;: &quot;aa95&quot;,&lt;br&gt;&lt;/span&gt;&lt;span&gt;&quot;phone&quot;: &quot;22909&quot;,&lt;/span&gt;&lt;/blockquote&gt;&lt;blockquote style=&quot;margin: 0 0 0 40px ; border: none ; padding: 0px&quot;&gt;&lt;span&gt;&quot;userInfo&quot;:{&lt;/span&gt;&lt;/blockquote&gt;&lt;blockquote style=&quot;margin: 0 0 0 40px ; border: none ; padding: 0px&quot;&gt;&amp;nbsp; &amp;nbsp; &quot;ID&quot;: &quot;yy95&quot;,&lt;/blockquote&gt;&lt;blockquote style=&quot;margin: 0 0 0 40px ; border: none ; padding: 0px&quot;&gt;&amp;nbsp; &amp;nbsp; &quot;ParentID&quot;: &quot;10006277&quot;,&lt;/blockquote&gt;&lt;blockquote style=&quot;margin: 0 0 0 40px ; border: none ; padding: 0px&quot;&gt;&amp;nbsp; &amp;nbsp; &quot;ShortName&quot;: &quot;yy95&quot;,&lt;/blockquote&gt;&lt;blockquote style=&quot;margin: 0 0 0 40px ; border: none ; padding: 0px&quot;&gt;&amp;nbsp; &amp;nbsp; &quot;Name&quot;: &quot;Yolanda Yang&quot;,&lt;/blockquote&gt;&lt;blockquote style=&quot;margin: 0 0 0 40px ; border: none ; padding: 0px&quot;&gt;&amp;nbsp; &amp;nbsp; &quot;Title&quot;: &quot;Eng, Software, DFIS&quot;,&lt;/blockquote&gt;&lt;blockquote style=&quot;margin: 0 0 0 40px ; border: none ; padding: 0px&quot;&gt;&amp;nbsp; &amp;nbsp; &quot;Email&quot;: &quot;YOLANDA.L.YANG@NEWEGG.COM&quot;,&lt;/blockquote&gt;&lt;blockquote style=&quot;margin: 0 0 0 40px ; border: none ; padding: 0px&quot;&gt;&amp;nbsp; &amp;nbsp; &quot;OrgCode&quot;: &quot;86-130&quot;,&lt;/blockquote&gt;&lt;blockquote style=&quot;margin: 0 0 0 40px ; border: none ; padding: 0px&quot;&gt;&amp;nbsp; &amp;nbsp; &quot;OrgName&quot;: &quot;Division&amp;nbsp; 7 - DFIS&quot;,&lt;/blockquote&gt;&lt;blockquote style=&quot;margin: 0 0 0 40px ; border: none ; padding: 0px&quot;&gt;&amp;nbsp; &amp;nbsp; &quot;Leader&quot;: &quot;Roger Yan&quot;,&lt;/blockquote&gt;&lt;blockquote style=&quot;margin: 0 0 0 40px ; border: none ; padding: 0px&quot;&gt;&amp;nbsp; &amp;nbsp; &quot;Primary&quot;: true,&lt;/blockquote&gt;&lt;blockquote style=&quot;margin: 0 0 0 40px ; border: none ; padding: 0px&quot;&gt;&amp;nbsp; &amp;nbsp; &quot;Partner&quot;: false,&lt;/blockquote&gt;&lt;blockquote style=&quot;margin: 0 0 0 40px ; border: none ; padding: 0px&quot;&gt;&amp;nbsp; &amp;nbsp; &quot;OrgCodes&quot;: [&lt;/blockquote&gt;&lt;blockquote style=&quot;margin: 0 0 0 40px ; border: none ; padding: 0px&quot;&gt;&amp;nbsp; &amp;nbsp; &amp;nbsp; &quot;86-130&quot;,&lt;/blockquote&gt;&lt;blockquote style=&quot;margin: 0 0 0 40px ; border: none ; padding: 0px&quot;&gt;&amp;nbsp; &amp;nbsp; &amp;nbsp; &quot;86-116&quot;,&lt;/blockquote&gt;&lt;blockquote style=&quot;margin: 0 0 0 40px ; border: none ; padding: 0px&quot;&gt;&amp;nbsp; &amp;nbsp; &amp;nbsp; &quot;86-110&quot;,&lt;/blockquote&gt;&lt;blockquote style=&quot;margin: 0 0 0 40px ; border: none ; padding: 0px&quot;&gt;&amp;nbsp; &amp;nbsp; &amp;nbsp; &quot;86-092&quot;,&lt;/blockquote&gt;&lt;blockquote style=&quot;margin: 0 0 0 40px ; border: none ; padding: 0px&quot;&gt;&amp;nbsp; &amp;nbsp; &amp;nbsp; &quot;01-008&quot;,&lt;/blockquote&gt;&lt;blockquote style=&quot;margin: 0 0 0 40px ; border: none ; padding: 0px&quot;&gt;&amp;nbsp; &amp;nbsp; &amp;nbsp; &quot;01-000&quot;,&lt;/blockquote&gt;&lt;blockquote style=&quot;margin: 0 0 0 40px ; border: none ; padding: 0px&quot;&gt;&amp;nbsp; &amp;nbsp; &amp;nbsp; &quot;BD0&quot;,&lt;/blockquote&gt;&lt;blockquote style=&quot;margin: 0 0 0 40px ; border: none ; padding: 0px&quot;&gt;&amp;nbsp; &amp;nbsp; &amp;nbsp; &quot;qtzvgw&quot;,&lt;/blockquote&gt;&lt;blockquote style=&quot;margin: 0 0 0 40px ; border: none ; padding: 0px&quot;&gt;&amp;nbsp; &amp;nbsp; &amp;nbsp; &quot;N0001&quot;,&lt;/blockquote&gt;&lt;blockquote style=&quot;margin: 0 0 0 40px ; border: none ; padding: 0px&quot;&gt;&amp;nbsp; &amp;nbsp; &amp;nbsp; &quot;86-199&quot;,&lt;/blockquote&gt;&lt;blockquote style=&quot;margin: 0 0 0 40px ; border: none ; padding: 0px&quot;&gt;&amp;nbsp; &amp;nbsp; &amp;nbsp; &quot;fdsafasdfdasfasdfasdf&quot;,&lt;/blockquote&gt;&lt;blockquote style=&quot;margin: 0 0 0 40px ; border: none ; padding: 0px&quot;&gt;&amp;nbsp; &amp;nbsp; &amp;nbsp; &quot;fkasdjfhkjdfhkasd&quot;,&lt;/blockquote&gt;&lt;blockquote style=&quot;margin: 0 0 0 40px ; border: none ; padding: 0px&quot;&gt;&amp;nbsp; &amp;nbsp; &amp;nbsp; &quot;N00005&quot;,&lt;/blockquote&gt;&lt;blockquote style=&quot;margin: 0 0 0 40px ; border: none ; padding: 0px&quot;&gt;&amp;nbsp; &amp;nbsp; &amp;nbsp; &quot;9999&quot;,&lt;/blockquote&gt;&lt;blockquote style=&quot;margin: 0 0 0 40px ; border: none ; padding: 0px&quot;&gt;&amp;nbsp; &amp;nbsp; &amp;nbsp; &quot;kbimd4&quot;,&lt;/blockquote&gt;&lt;blockquote style=&quot;margin: 0 0 0 40px ; border: none ; padding: 0px&quot;&gt;&amp;nbsp; &amp;nbsp; &amp;nbsp; &quot;N0003&quot;&lt;/blockquote&gt;&lt;blockquote style=&quot;margin: 0 0 0 40px ; border: none ; padding: 0px&quot;&gt;&amp;nbsp; &amp;nbsp; ],&lt;/blockquote&gt;&lt;blockquote style=&quot;margin: 0 0 0 40px ; border: none ; padding: 0px&quot;&gt;&amp;nbsp; &amp;nbsp; &quot;Company&quot;: &quot;新蛋科技（成都）有限公司&quot;,&lt;/blockquote&gt;&lt;blockquote style=&quot;margin: 0 0 0 40px ; border: none ; padding: 0px&quot;&gt;&amp;nbsp; &amp;nbsp; &quot;Unit&quot;: &quot;CN CD NESC MIS USD DFIS&quot;,&lt;/blockquote&gt;&lt;blockquote style=&quot;margin: 0 0 0 40px ; border: none ; padding: 0px&quot;&gt;&amp;nbsp; &amp;nbsp; &quot;PhoneNo&quot;: &quot;&quot;,&lt;/blockquote&gt;&lt;blockquote style=&quot;margin: 0 0 0 40px ; border: none ; padding: 0px&quot;&gt;&amp;nbsp; &amp;nbsp; &quot;Location&quot;: &quot;Chengdu&quot;,&lt;/blockquote&gt;&lt;blockquote style=&quot;margin: 0 0 0 40px ; border: none ; padding: 0px&quot;&gt;&amp;nbsp; &amp;nbsp; &quot;HireDate&quot;: &quot;2021-08-17&quot;,&lt;/blockquote&gt;&lt;blockquote style=&quot;margin: 0 0 0 40px ; border: none ; padding: 0px&quot;&gt;&amp;nbsp; &amp;nbsp; &quot;Avatar&quot;: &quot;http://gdev-services.newegg.space/3c3461a5/files/common/v1/domain/user/YY95/avatar&quot;,&lt;/blockquote&gt;&lt;blockquote style=&quot;margin: 0 0 0 40px ; border: none ; padding: 0px&quot;&gt;&amp;nbsp; &amp;nbsp; &quot;timezone&quot;: &quot;Asia/Shanghai&quot;,&lt;/blockquote&gt;&lt;blockquote style=&quot;margin: 0 0 0 40px ; border: none ; padding: 0px&quot;&gt;&amp;nbsp; &amp;nbsp; &quot;Status&quot;: {&lt;/blockquote&gt;&lt;blockquote style=&quot;margin: 0 0 0 40px ; border: none ; padding: 0px&quot;&gt;&amp;nbsp; &amp;nbsp; &amp;nbsp; &quot;StartAt&quot;: 0,&lt;/blockquote&gt;&lt;blockquote style=&quot;margin: 0 0 0 40px ; border: none ; padding: 0px&quot;&gt;&amp;nbsp; &amp;nbsp; &amp;nbsp; &quot;EndAt&quot;: 0,&lt;/blockquote&gt;&lt;blockquote style=&quot;margin: 0 0 0 40px ; border: none ; padding: 0px&quot;&gt;&amp;nbsp; &amp;nbsp; &amp;nbsp; &quot;Text&quot;: &quot;Available&quot;&lt;/blockquote&gt;&lt;blockquote style=&quot;margin: 0 0 0 40px ; border: none ; padding: 0px&quot;&gt;&amp;nbsp; &amp;nbsp; }&lt;/blockquote&gt;&lt;blockquote style=&quot;margin: 0 0 0 40px ; border: none ; padding: 0px&quot;&gt;&amp;nbsp; },&lt;/blockquote&gt;&lt;blockquote style=&quot;margin: 0 0 0 40px ; border: none ; padding: 0px&quot;&gt;&lt;span&gt;&quot;inBound&quot;: [{&lt;br&gt;&lt;/span&gt;&lt;/blockquote&gt;&lt;blockquote style=&quot;margin: 0 0 0 40px ; border: none ; padding: 0px&quot;&gt;&lt;blockquote style=&quot;margin: 0 0 0 40px ; border: none ; padding: 0px&quot;&gt;&lt;span&gt;&quot;total&quot;: 1,&lt;/span&gt;&lt;/blockquote&gt;&lt;blockquote style=&quot;margin: 0 0 0 40px ; border: none ; padding: 0px&quot;&gt;&lt;span&gt;&quot;answered&quot;: {&lt;/span&gt;&lt;/blockquote&gt;&lt;/blockquote&gt;&lt;blockquote style=&quot;margin: 0 0 0 40px ; border: none ; padding: 0px&quot;&gt;&lt;blockquote style=&quot;margin: 0 0 0 40px ; border: none ; padding: 0px&quot;&gt;&lt;blockquote style=&quot;margin: 0 0 0 40px ; border: none ; padding: 0px&quot;&gt;&lt;span&gt;&quot;count&quot;: 1,&lt;/span&gt;&lt;/blockquote&gt;&lt;/blockquote&gt;&lt;blockquote style=&quot;margin: 0 0 0 40px ; border: none ; padding: 0px&quot;&gt;&lt;blockquote style=&quot;margin: 0 0 0 40px ; border: none ; padding: 0px&quot;&gt;&lt;span&gt;&quot;time&quot;: 1,&lt;/span&gt;&lt;/blockquote&gt;&lt;/blockquote&gt;&lt;blockquote style=&quot;margin: 0 0 0 40px ; border: none ; padding: 0px&quot;&gt;&lt;blockquote style=&quot;margin: 0 0 0 40px ; border: none ; padding: 0px&quot;&gt;&lt;span&gt;&quot;innerCount&quot;: 0,&lt;/span&gt;&lt;/blockquote&gt;&lt;/blockquote&gt;&lt;blockquote style=&quot;margin: 0 0 0 40px ; border: none ; padding: 0px&quot;&gt;&lt;blockquote style=&quot;margin: 0 0 0 40px ; border: none ; padding: 0px&quot;&gt;&lt;span&gt;&quot;innerTime&quot;: 0,&lt;/span&gt;&lt;/blockquote&gt;&lt;/blockquote&gt;&lt;blockquote style=&quot;margin: 0 0 0 40px ; border: none ; padding: 0px&quot;&gt;&lt;blockquote style=&quot;margin: 0 0 0 40px ; border: none ; padding: 0px&quot;&gt;&lt;span&gt;&quot;externalCount&quot;: 1,&lt;/span&gt;&lt;/blockquote&gt;&lt;/blockquote&gt;&lt;blockquote style=&quot;margin: 0 0 0 40px ; border: none ; padding: 0px&quot;&gt;&lt;blockquote style=&quot;margin: 0 0 0 40px ; border: none ; padding: 0px&quot;&gt;&lt;span&gt;&quot;externalTime&quot;: 1&lt;/span&gt;&lt;/blockquote&gt;&lt;/blockquote&gt;&lt;/blockquote&gt;&lt;blockquote style=&quot;margin: 0 0 0 40px ; border: none ; padding: 0px&quot;&gt;&lt;blockquote style=&quot;margin: 0 0 0 40px ; border: none ; padding: 0px&quot;&gt;&lt;span&gt;},&lt;/span&gt;&lt;/blockquote&gt;&lt;blockquote style=&quot;margin: 0 0 0 40px ; border: none ; padding: 0px&quot;&gt;&lt;span&gt;&quot;miss&quot;: {&lt;/span&gt;&lt;/blockquote&gt;&lt;/blockquote&gt;&lt;blockquote style=&quot;margin: 0 0 0 40px ; border: none ; padding: 0px&quot;&gt;&lt;blockquote style=&quot;margin: 0 0 0 40px ; border: none ; padding: 0px&quot;&gt;&lt;blockquote style=&quot;margin: 0 0 0 40px ; border: none ; padding: 0px&quot;&gt;&lt;span&gt;&quot;count&quot;: 0,&lt;/span&gt;&lt;/blockquote&gt;&lt;/blockquote&gt;&lt;blockquote style=&quot;margin: 0 0 0 40px ; border: none ; padding: 0px&quot;&gt;&lt;blockquote style=&quot;margin: 0 0 0 40px ; border: none ; padding: 0px&quot;&gt;&lt;span&gt;&quot;time&quot;: 0,&lt;/span&gt;&lt;/blockquote&gt;&lt;/blockquote&gt;&lt;blockquote style=&quot;margin: 0 0 0 40px ; border: none ; padding: 0px&quot;&gt;&lt;blockquote style=&quot;margin: 0 0 0 40px ; border: none ; padding: 0px&quot;&gt;&lt;span&gt;&quot;innerCount&quot;: 0,&lt;/span&gt;&lt;/blockquote&gt;&lt;/blockquote&gt;&lt;blockquote style=&quot;margin: 0 0 0 40px ; border: none ; padding: 0px&quot;&gt;&lt;blockquote style=&quot;margin: 0 0 0 40px ; border: none ; padding: 0px&quot;&gt;&lt;span&gt;&quot;innerTime&quot;: 0,&lt;/span&gt;&lt;/blockquote&gt;&lt;/blockquote&gt;&lt;blockquote style=&quot;margin: 0 0 0 40px ; border: none ; padding: 0px&quot;&gt;&lt;blockquote style=&quot;margin: 0 0 0 40px ; border: none ; padding: 0px&quot;&gt;&lt;span&gt;&quot;externalCount&quot;: 0,&lt;/span&gt;&lt;/blockquote&gt;&lt;/blockquote&gt;&lt;blockquote style=&quot;margin: 0 0 0 40px ; border: none ; padding: 0px&quot;&gt;&lt;blockquote style=&quot;margin: 0 0 0 40px ; border: none ; padding: 0px&quot;&gt;&lt;span&gt;&quot;externalTime&quot;: 0&lt;/span&gt;&lt;/blockquote&gt;&lt;/blockquote&gt;&lt;/blockquote&gt;&lt;blockquote style=&quot;margin: 0 0 0 40px ; border: none ; padding: 0px&quot;&gt;&lt;blockquote style=&quot;margin: 0 0 0 40px ; border: none ; padding: 0px&quot;&gt;&lt;span&gt;}&lt;/span&gt;&lt;/blockquote&gt;&lt;/blockquote&gt;&lt;blockquote style=&quot;margin: 0 0 0 40px ; border: none ; padding: 0px&quot;&gt;&lt;span&gt;}],&lt;br&gt;&lt;/span&gt;&lt;span&gt;&quot;outBound&quot;: [{&lt;br&gt;&lt;/span&gt;&lt;/blockquote&gt;&lt;blockquote style=&quot;margin: 0 0 0 40px ; border: none ; padding: 0px&quot;&gt;&lt;blockquote style=&quot;margin: 0 0 0 40px ; border: none ; padding: 0px&quot;&gt;&lt;span&gt;&quot;total&quot;: 46,&lt;/span&gt;&lt;/blockquote&gt;&lt;blockquote style=&quot;margin: 0 0 0 40px ; border: none ; padding: 0px&quot;&gt;&lt;span&gt;&quot;answered&quot;: {&lt;/span&gt;&lt;/blockquote&gt;&lt;/blockquote&gt;&lt;blockquote style=&quot;margin: 0 0 0 40px ; border: none ; padding: 0px&quot;&gt;&lt;blockquote style=&quot;margin: 0 0 0 40px ; border: none ; padding: 0px&quot;&gt;&lt;blockquote style=&quot;margin: 0 0 0 40px ; border: none ; padding: 0px&quot;&gt;&lt;span&gt;&quot;count&quot;: 42,&lt;/span&gt;&lt;/blockquote&gt;&lt;/blockquote&gt;&lt;blockquote style=&quot;margin: 0 0 0 40px ; border: none ; padding: 0px&quot;&gt;&lt;blockquote style=&quot;margin: 0 0 0 40px ; border: none ; padding: 0px&quot;&gt;&lt;span&gt;&quot;time&quot;: 98,&lt;/span&gt;&lt;/blockquote&gt;&lt;/blockquote&gt;&lt;blockquote style=&quot;margin: 0 0 0 40px ; border: none ; padding: 0px&quot;&gt;&lt;blockquote style=&quot;margin: 0 0 0 40px ; border: none ; padding: 0px&quot;&gt;&lt;span&gt;&quot;innerCount&quot;: 5,&lt;/span&gt;&lt;/blockquote&gt;&lt;/blockquote&gt;&lt;blockquote style=&quot;margin: 0 0 0 40px ; border: none ; padding: 0px&quot;&gt;&lt;blockquote style=&quot;margin: 0 0 0 40px ; border: none ; padding: 0px&quot;&gt;&lt;span&gt;&quot;innerTime&quot;: 1,&lt;/span&gt;&lt;/blockquote&gt;&lt;/blockquote&gt;&lt;blockquote style=&quot;margin: 0 0 0 40px ; border: none ; padding: 0px&quot;&gt;&lt;blockquote style=&quot;margin: 0 0 0 40px ; border: none ; padding: 0px&quot;&gt;&lt;span&gt;&quot;externalCount&quot;: 37,&lt;/span&gt;&lt;/blockquote&gt;&lt;/blockquote&gt;&lt;blockquote style=&quot;margin: 0 0 0 40px ; border: none ; padding: 0px&quot;&gt;&lt;blockquote style=&quot;margin: 0 0 0 40px ; border: none ; padding: 0px&quot;&gt;&lt;span&gt;&quot;externalTime&quot;: 97&lt;/span&gt;&lt;/blockquote&gt;&lt;/blockquote&gt;&lt;/blockquote&gt;&lt;blockquote style=&quot;margin: 0 0 0 40px ; border: none ; padding: 0px&quot;&gt;&lt;blockquote style=&quot;margin: 0 0 0 40px ; border: none ; padding: 0px&quot;&gt;&lt;span&gt;},&lt;/span&gt;&lt;/blockquote&gt;&lt;blockquote style=&quot;margin: 0 0 0 40px ; border: none ; padding: 0px&quot;&gt;&lt;span&gt;&quot;miss&quot;: {&lt;/span&gt;&lt;/blockquote&gt;&lt;/blockquote&gt;&lt;blockquote style=&quot;margin: 0 0 0 40px ; border: none ; padding: 0px&quot;&gt;&lt;blockquote style=&quot;margin: 0 0 0 40px ; border: none ; padding: 0px&quot;&gt;&lt;blockquote style=&quot;margin: 0 0 0 40px ; border: none ; padding: 0px&quot;&gt;&lt;span&gt;&quot;count&quot;: 4,&lt;/span&gt;&lt;/blockquote&gt;&lt;/blockquote&gt;&lt;blockquote style=&quot;margin: 0 0 0 40px ; border: none ; padding: 0px&quot;&gt;&lt;blockquote style=&quot;margin: 0 0 0 40px ; border: none ; padding: 0px&quot;&gt;&lt;span&gt;&quot;time&quot;: 2,&lt;/span&gt;&lt;/blockquote&gt;&lt;/blockquote&gt;&lt;blockquote style=&quot;margin: 0 0 0 40px ; border: none ; padding: 0px&quot;&gt;&lt;blockquote style=&quot;margin: 0 0 0 40px ; border: none ; padding: 0px&quot;&gt;&lt;span&gt;&quot;innerCount&quot;: 0,&lt;/span&gt;&lt;/blockquote&gt;&lt;/blockquote&gt;&lt;blockquote style=&quot;margin: 0 0 0 40px ; border: none ; padding: 0px&quot;&gt;&lt;blockquote style=&quot;margin: 0 0 0 40px ; border: none ; padding: 0px&quot;&gt;&lt;span&gt;&quot;innerTime&quot;: 0,&lt;/span&gt;&lt;/blockquote&gt;&lt;/blockquote&gt;&lt;blockquote style=&quot;margin: 0 0 0 40px ; border: none ; padding: 0px&quot;&gt;&lt;blockquote style=&quot;margin: 0 0 0 40px ; border: none ; padding: 0px&quot;&gt;&lt;span&gt;&quot;externalCount&quot;: 4,&lt;/span&gt;&lt;/blockquote&gt;&lt;/blockquote&gt;&lt;blockquote style=&quot;margin: 0 0 0 40px ; border: none ; padding: 0px&quot;&gt;&lt;blockquote style=&quot;margin: 0 0 0 40px ; border: none ; padding: 0px&quot;&gt;&lt;span&gt;&quot;externalTime&quot;: 2&lt;/span&gt;&lt;/blockquote&gt;&lt;/blockquote&gt;&lt;/blockquote&gt;&lt;blockquote style=&quot;margin: 0 0 0 40px ; border: none ; padding: 0px&quot;&gt;&lt;blockquote style=&quot;margin: 0 0 0 40px ; border: none ; padding: 0px&quot;&gt;&lt;span&gt;}&lt;/span&gt;&lt;/blockquote&gt;&lt;/blockquote&gt;&lt;blockquote style=&quot;margin: 0 0 0 40px ; border: none ; padding: 0px&quot;&gt;&lt;span&gt;}],&lt;br&gt;&lt;/span&gt;&lt;span&gt;&quot;total&quot;: 47&lt;/span&gt;&lt;div&gt;&lt;span&gt;}]&lt;/span&gt;&lt;/div&gt;&lt;/blockquote&gt;&lt;div&gt;}&lt;/div&gt;" style="rounded=0;whiteSpace=wrap;html=1;align=left;verticalAlign=top;" vertex="1" parent="1">
          <mxGeometry x="-7.5" y="220" width="725" height="1430" as="geometry" />
        </mxCell>
        <mxCell id="NEyhYiZGuC3c6bcl8kjB-26" value="{&lt;br&gt;	&quot;code&quot;: 200,&lt;br&gt;	&quot;message&quot;: &quot;success&quot;,&lt;br&gt;	&quot;data&quot;: {&lt;br&gt;&lt;span&gt;	&lt;/span&gt;&quot;userInfo&quot;:&lt;span&gt;{&lt;/span&gt;&lt;div&gt;&amp;nbsp; &amp;nbsp; &amp;nbsp; &quot;ID&quot;: &quot;yy95&quot;,&lt;/div&gt;&lt;div&gt;&amp;nbsp; &amp;nbsp; &amp;nbsp; &quot;ParentID&quot;: &quot;10006277&quot;,&lt;/div&gt;&lt;div&gt;&amp;nbsp; &amp;nbsp; &amp;nbsp; &quot;ShortName&quot;: &quot;yy95&quot;,&lt;/div&gt;&lt;div&gt;&amp;nbsp; &amp;nbsp; &amp;nbsp; &quot;Name&quot;: &quot;Yolanda Yang&quot;,&lt;/div&gt;&lt;div&gt;&amp;nbsp; &amp;nbsp; &amp;nbsp; &quot;Title&quot;: &quot;Eng, Software, DFIS&quot;,&lt;/div&gt;&lt;div&gt;&amp;nbsp; &amp;nbsp; &amp;nbsp; &quot;Email&quot;: &quot;YOLANDA.L.YANG@NEWEGG.COM&quot;,&lt;/div&gt;&lt;div&gt;&amp;nbsp; &amp;nbsp; &amp;nbsp; &quot;OrgCode&quot;: &quot;86-130&quot;,&lt;/div&gt;&lt;div&gt;&amp;nbsp; &amp;nbsp; &amp;nbsp; &quot;OrgName&quot;: &quot;Division&amp;nbsp; 7 - DFIS&quot;,&lt;/div&gt;&lt;div&gt;&amp;nbsp; &amp;nbsp; &amp;nbsp; &quot;Leader&quot;: &quot;Roger Yan&quot;,&lt;/div&gt;&lt;div&gt;&amp;nbsp; &amp;nbsp; &amp;nbsp; &quot;Primary&quot;: true,&lt;/div&gt;&lt;div&gt;&amp;nbsp; &amp;nbsp; &amp;nbsp; &quot;Partner&quot;: false,&lt;/div&gt;&lt;div&gt;&amp;nbsp; &amp;nbsp; &amp;nbsp; &quot;OrgCodes&quot;: [],&lt;/div&gt;&lt;div&gt;&amp;nbsp; &amp;nbsp; &amp;nbsp; &quot;Company&quot;: &quot;新蛋科技（成都）有限公司&quot;,&lt;/div&gt;&lt;div&gt;&amp;nbsp; &amp;nbsp; &amp;nbsp; &quot;Unit&quot;: &quot;CN CD NESC MIS USD DFIS&quot;,&lt;/div&gt;&lt;div&gt;&amp;nbsp; &amp;nbsp; &amp;nbsp; &quot;PhoneNo&quot;: &quot;&quot;,&lt;/div&gt;&lt;div&gt;&amp;nbsp; &amp;nbsp; &amp;nbsp; &quot;Location&quot;: &quot;Chengdu&quot;,&lt;/div&gt;&lt;div&gt;&amp;nbsp; &amp;nbsp; &amp;nbsp; &quot;HireDate&quot;: &quot;2021-08-17&quot;,&lt;/div&gt;&lt;div&gt;&amp;nbsp; &amp;nbsp; &amp;nbsp; &quot;Avatar&quot;: &quot;http://gdev-services.newegg.space/3c3461a5/files/common/v1/domain/user/YY95/avatar&quot;&lt;/div&gt;&lt;span&gt;&amp;nbsp; &amp;nbsp; }&lt;/span&gt;,&lt;br&gt;&lt;br&gt;&lt;span&gt;	&lt;/span&gt;&quot;calls&quot;: [{&lt;br&gt;&lt;blockquote style=&quot;margin: 0 0 0 40px ; border: none ; padding: 0px&quot;&gt;&lt;/blockquote&gt;&lt;blockquote style=&quot;margin: 0 0 0 40px ; border: none ; padding: 0px&quot;&gt;&lt;/blockquote&gt;&lt;blockquote style=&quot;margin: 0 0 0 40px ; border: none ; padding: 0px&quot;&gt;&lt;span&gt;&quot;dst&quot;: &quot;93234402616&quot;,&lt;br&gt;&lt;/span&gt;&lt;span&gt;&quot;channel&quot;: &quot;SIP/24633-0002ad9d&quot;,&lt;br&gt;&lt;/span&gt;&lt;span&gt;&quot;outbound_cnam&quot;: &quot;&quot;,&lt;br&gt;&lt;/span&gt;&lt;span&gt;&quot;lastdata&quot;: &quot;SIP/s7sip01new-BDW/13234402616,600,t&quot;,&lt;br&gt;&lt;/span&gt;&lt;span&gt;&quot;recordingfile&quot;: &quot;&quot;,&lt;br&gt;&lt;/span&gt;&lt;span&gt;&quot;duration&quot;: 153,&lt;br&gt;&lt;/span&gt;&lt;span&gt;&quot;userfield&quot;: &quot;&quot;,&lt;br&gt;&lt;/span&gt;&lt;span&gt;&quot;id&quot;: 7179696,&lt;br&gt;&lt;/span&gt;&lt;span&gt;&quot;tag&quot;: [&quot;out&quot;, &quot;external&quot;],&lt;br&gt;&lt;/span&gt;&lt;span&gt;&quot;amaflags&quot;: 3,&lt;br&gt;&lt;/span&gt;&lt;span&gt;&quot;billsec&quot;: 144,&lt;br&gt;&lt;/span&gt;&lt;span&gt;&quot;uniqueid&quot;: &quot;1644973780.332690&quot;,&lt;br&gt;&lt;/span&gt;&lt;span&gt;&quot;dstchannel&quot;: &quot;SIP/s7sip01new-BDW-0002ad9e&quot;,&lt;br&gt;&lt;/span&gt;&lt;span&gt;&quot;src&quot;: &quot;24633&quot;,&lt;br&gt;&lt;/span&gt;&lt;span&gt;&quot;dcontext&quot;: &quot;from-internal&quot;,&lt;br&gt;&lt;/span&gt;&lt;span&gt;&quot;clid&quot;: &quot;24633&quot;,&lt;br&gt;&lt;/span&gt;&lt;span&gt;&quot;dst_cnam&quot;: &quot;&quot;,&lt;br&gt;&lt;/span&gt;&lt;span&gt;&quot;cnum&quot;: &quot;24633&quot;,&lt;br&gt;&lt;/span&gt;&lt;span&gt;&quot;calldate&quot;: &quot;2022-02-15T17:09:40.000+00:00&quot;,&lt;br&gt;&lt;/span&gt;&lt;span&gt;&quot;disposition&quot;: &quot;ANSWERED&quot;,&lt;br&gt;&lt;/span&gt;&lt;span&gt;&quot;cnam&quot;: &quot;Noemi Vasquez&quot;,&lt;br&gt;&lt;/span&gt;&lt;span&gt;&quot;lastapp&quot;: &quot;Dial&quot;,&lt;br&gt;&lt;/span&gt;&lt;span&gt;&quot;accountcode&quot;: &quot;&quot;,&lt;br&gt;&lt;/span&gt;&lt;span&gt;&quot;outbound_cnum&quot;: &quot;6262719700&quot;,&lt;br&gt;&lt;/span&gt;&lt;span&gt;&quot;user&quot;: &quot;nv52&quot;,&lt;br&gt;&lt;/span&gt;&lt;span&gt;&quot;did&quot;: &quot;&quot;&lt;/span&gt;&lt;/blockquote&gt;&lt;blockquote style=&quot;margin: 0 0 0 40px ; border: none ; padding: 0px&quot;&gt;&lt;/blockquote&gt;&lt;blockquote style=&quot;margin: 0 0 0 40px ; border: none ; padding: 0px&quot;&gt;&lt;/blockquote&gt;&lt;blockquote style=&quot;margin: 0 0 0 40px ; border: none ; padding: 0px&quot;&gt;&lt;/blockquote&gt;&lt;blockquote style=&quot;margin: 0 0 0 40px ; border: none ; padding: 0px&quot;&gt;&lt;/blockquote&gt;&lt;blockquote style=&quot;margin: 0 0 0 40px ; border: none ; padding: 0px&quot;&gt;&lt;/blockquote&gt;&lt;blockquote style=&quot;margin: 0 0 0 40px ; border: none ; padding: 0px&quot;&gt;&lt;/blockquote&gt;&lt;blockquote style=&quot;margin: 0 0 0 40px ; border: none ; padding: 0px&quot;&gt;&lt;/blockquote&gt;&lt;blockquote style=&quot;margin: 0 0 0 40px ; border: none ; padding: 0px&quot;&gt;&lt;/blockquote&gt;&lt;blockquote style=&quot;margin: 0 0 0 40px ; border: none ; padding: 0px&quot;&gt;&lt;/blockquote&gt;&lt;blockquote style=&quot;margin: 0 0 0 40px ; border: none ; padding: 0px&quot;&gt;&lt;/blockquote&gt;&lt;blockquote style=&quot;margin: 0 0 0 40px ; border: none ; padding: 0px&quot;&gt;&lt;/blockquote&gt;&lt;blockquote style=&quot;margin: 0 0 0 40px ; border: none ; padding: 0px&quot;&gt;&lt;/blockquote&gt;&lt;blockquote style=&quot;margin: 0 0 0 40px ; border: none ; padding: 0px&quot;&gt;&lt;/blockquote&gt;&lt;blockquote style=&quot;margin: 0 0 0 40px ; border: none ; padding: 0px&quot;&gt;&lt;/blockquote&gt;&lt;blockquote style=&quot;margin: 0 0 0 40px ; border: none ; padding: 0px&quot;&gt;&lt;/blockquote&gt;&lt;blockquote style=&quot;margin: 0 0 0 40px ; border: none ; padding: 0px&quot;&gt;&lt;/blockquote&gt;&lt;blockquote style=&quot;margin: 0 0 0 40px ; border: none ; padding: 0px&quot;&gt;&lt;/blockquote&gt;&lt;blockquote style=&quot;margin: 0 0 0 40px ; border: none ; padding: 0px&quot;&gt;&lt;/blockquote&gt;&lt;blockquote style=&quot;margin: 0 0 0 40px ; border: none ; padding: 0px&quot;&gt;&lt;/blockquote&gt;&lt;blockquote style=&quot;margin: 0 0 0 40px ; border: none ; padding: 0px&quot;&gt;&lt;/blockquote&gt;&lt;blockquote style=&quot;margin: 0 0 0 40px ; border: none ; padding: 0px&quot;&gt;&lt;/blockquote&gt;&lt;blockquote style=&quot;margin: 0 0 0 40px ; border: none ; padding: 0px&quot;&gt;&lt;/blockquote&gt;&lt;blockquote style=&quot;margin: 0 0 0 40px ; border: none ; padding: 0px&quot;&gt;&lt;/blockquote&gt;&lt;blockquote style=&quot;margin: 0 0 0 40px ; border: none ; padding: 0px&quot;&gt;&lt;/blockquote&gt;&lt;blockquote style=&quot;margin: 0 0 0 40px ; border: none ; padding: 0px&quot;&gt;&lt;/blockquote&gt;&lt;blockquote style=&quot;margin: 0 0 0 40px ; border: none ; padding: 0px&quot;&gt;&lt;/blockquote&gt;&lt;blockquote style=&quot;margin: 0 0 0 40px ; border: none ; padding: 0px&quot;&gt;&lt;/blockquote&gt;&lt;blockquote style=&quot;margin: 0 0 0 40px ; border: none ; padding: 0px&quot;&gt;&lt;/blockquote&gt;&lt;blockquote style=&quot;margin: 0 0 0 40px ; border: none ; padding: 0px&quot;&gt;&lt;/blockquote&gt;&lt;blockquote style=&quot;margin: 0 0 0 40px ; border: none ; padding: 0px&quot;&gt;&lt;/blockquote&gt;&lt;blockquote style=&quot;margin: 0 0 0 40px ; border: none ; padding: 0px&quot;&gt;&lt;/blockquote&gt;&lt;blockquote style=&quot;margin: 0 0 0 40px ; border: none ; padding: 0px&quot;&gt;&lt;/blockquote&gt;&lt;blockquote style=&quot;margin: 0 0 0 40px ; border: none ; padding: 0px&quot;&gt;&lt;/blockquote&gt;&lt;blockquote style=&quot;margin: 0 0 0 40px ; border: none ; padding: 0px&quot;&gt;&lt;/blockquote&gt;&lt;blockquote style=&quot;margin: 0 0 0 40px ; border: none ; padding: 0px&quot;&gt;&lt;/blockquote&gt;&lt;blockquote style=&quot;margin: 0 0 0 40px ; border: none ; padding: 0px&quot;&gt;&lt;/blockquote&gt;&lt;blockquote style=&quot;margin: 0 0 0 40px ; border: none ; padding: 0px&quot;&gt;&lt;/blockquote&gt;&lt;blockquote style=&quot;margin: 0 0 0 40px ; border: none ; padding: 0px&quot;&gt;&lt;/blockquote&gt;&lt;blockquote style=&quot;margin: 0 0 0 40px ; border: none ; padding: 0px&quot;&gt;&lt;/blockquote&gt;&lt;blockquote style=&quot;margin: 0 0 0 40px ; border: none ; padding: 0px&quot;&gt;&lt;/blockquote&gt;&lt;blockquote style=&quot;margin: 0 0 0 40px ; border: none ; padding: 0px&quot;&gt;&lt;/blockquote&gt;&lt;blockquote style=&quot;margin: 0 0 0 40px ; border: none ; padding: 0px&quot;&gt;&lt;/blockquote&gt;&lt;blockquote style=&quot;margin: 0 0 0 40px ; border: none ; padding: 0px&quot;&gt;&lt;/blockquote&gt;&lt;blockquote style=&quot;margin: 0 0 0 40px ; border: none ; padding: 0px&quot;&gt;&lt;/blockquote&gt;&lt;blockquote style=&quot;margin: 0 0 0 40px ; border: none ; padding: 0px&quot;&gt;&lt;/blockquote&gt;&lt;blockquote style=&quot;margin: 0 0 0 40px ; border: none ; padding: 0px&quot;&gt;&lt;/blockquote&gt;&lt;blockquote style=&quot;margin: 0 0 0 40px ; border: none ; padding: 0px&quot;&gt;&lt;/blockquote&gt;&lt;blockquote style=&quot;margin: 0 0 0 40px ; border: none ; padding: 0px&quot;&gt;&lt;/blockquote&gt;&lt;blockquote style=&quot;margin: 0 0 0 40px ; border: none ; padding: 0px&quot;&gt;&lt;/blockquote&gt;&lt;blockquote style=&quot;margin: 0 0 0 40px ; border: none ; padding: 0px&quot;&gt;	}]&lt;/blockquote&gt;}" style="whiteSpace=wrap;html=1;align=left;verticalAlign=top;" vertex="1" parent="1">
          <mxGeometry x="-680" y="230" width="590" height="1290" as="geometry" />
        </mxCell>
      </root>
    </mxGraphModel>
  </diagram>
</mxfile>
